 <svg version="1.0" xmlns="http://www.w3.org/2000/svg" width="700.000000pt" height="525.000000pt" viewBox="0 0 700.000000 525.000000" preserveAspectRatio="xMidYMid meet">
<metadata>
Created by potrace 1.12, written by Peter Selinger 2001-2015
</metadata>
<g transform="translate(0.000000,525.000000) scale(0.100000,-0.100000)" fill="#000000" stroke="none">
<path d="M1724 5235 c4 -10 -1 -15 -15 -15 -11 0 -24 -10 -29 -22 -5 -13 -9
-17 -9 -9 -1 8 -7 11 -18 6 -10 -4 -23 -8 -30 -9 -7 -1 -16 -5 -19 -9 -4 -4
-15 -7 -25 -7 -9 0 -19 -9 -22 -20 -4 -17 -14 -20 -55 -20 -67 0 -107 9 -129
29 -27 24 -50 24 -88 1 -19 -12 -35 -17 -35 -12 0 16 -54 8 -72 -10 -10 -10
-15 -18 -10 -18 4 -1 -4 -7 -17 -14 -16 -9 -58 -13 -127 -12 -57 1 -104 -2
-104 -6 0 -3 -14 -9 -30 -13 -17 -4 -30 -11 -30 -16 0 -6 -4 -7 -10 -4 -5 3
-10 0 -10 -9 0 -8 -3 -21 -6 -30 -4 -10 -1 -16 9 -16 8 0 17 5 19 11 2 5 12
12 23 14 11 2 20 4 20 5 0 1 69 3 154 5 130 2 155 5 163 19 5 9 16 16 25 16
12 0 13 -3 4 -14 -9 -11 -3 -11 40 0 29 8 77 14 108 15 31 1 59 7 63 12 7 12
68 -10 68 -24 0 -18 49 -20 102 -4 31 9 60 15 64 14 5 -1 14 0 19 1 6 1 41 2
80 2 38 0 84 6 102 13 18 8 33 11 33 7 0 -3 7 4 16 16 13 18 25 22 73 22 32 0
62 -5 69 -12 7 -7 41 -14 75 -14 34 -1 92 -5 129 -9 53 -6 72 -5 90 7 16 10
30 13 46 7 36 -14 224 -10 238 4 4 4 1 14 -6 22 -10 12 -27 14 -74 11 -34 -3
-55 -2 -48 0 6 3 12 12 12 21 0 8 7 21 15 29 8 9 15 24 15 35 0 18 -10 19
-265 19 -229 0 -265 -2 -265 -15 0 -8 -5 -15 -11 -15 -6 0 -9 -6 -6 -14 5 -12
-12 -14 -100 -12 -105 3 -122 9 -123 44 0 15 -20 12 -40 -7 -13 -13 -15 -12
-18 2 -2 9 -10 17 -19 17 -9 0 -13 -6 -9 -15z m466 -15 c0 -5 -4 -10 -10 -10
-5 0 -10 5 -10 10 0 6 5 10 10 10 6 0 10 -4 10 -10z"></path>
<path d="M796 5047 c3 -10 9 -15 12 -12 3 3 0 11 -7 18 -10 9 -11 8 -5 -6z"></path>
<path d="M5080 4949 c0 -7 9 -9 22 -6 33 9 67 -25 36 -36 -7 -2 -5 -3 4 -2 9
2 19 -4 22 -11 7 -19 -24 -31 -34 -13 -13 20 -24 2 -22 -35 2 -33 2 -33 -38
-30 -30 2 -47 -3 -61 -17 -10 -10 -31 -19 -45 -19 -14 0 -23 -3 -21 -7 5 -8
-39 -13 -128 -15 -22 -1 -42 -4 -45 -7 -28 -33 -112 -62 -180 -63 -44 0 -57
-3 -40 -8 14 -4 24 -12 22 -18 -2 -11 18 -17 41 -13 4 0 7 -6 7 -14 0 -8 6
-12 14 -9 8 3 17 1 20 -5 4 -6 13 -8 21 -5 8 4 37 -2 63 -11 38 -14 63 -16
115 -11 37 4 67 11 67 16 0 4 61 9 135 9 84 1 135 -2 135 -8 0 -17 79 -33 129
-25 57 8 97 7 136 -6 40 -13 85 -14 235 -6 69 3 158 6 198 7 45 0 72 4 72 11
0 7 5 6 15 -2 8 -6 20 -8 27 -4 7 5 27 7 45 5 22 -2 33 2 33 10 0 10 3 10 11
2 12 -12 39 -6 51 11 5 7 8 7 8 -2 0 -7 4 -11 8 -8 5 3 26 1 47 -5 28 -8 40
-8 45 1 7 11 41 10 151 -4 15 -2 45 1 68 7 34 9 44 9 50 -2 5 -8 14 -10 21 -6
10 6 129 15 198 15 6 0 18 0 25 0 157 7 194 6 206 -4 11 -8 13 -8 7 2 -4 6 -3
12 3 12 5 0 12 -6 14 -12 3 -7 6 30 6 82 l1 95 -69 0 c-38 0 -67 -3 -65 -6 10
-17 -30 -18 -43 -2 -8 10 -12 12 -8 5 3 -7 -1 -15 -11 -19 -10 -4 -19 -2 -22
5 -5 17 -32 15 -32 -3 0 -8 -4 -15 -10 -15 -5 0 -10 8 -10 18 0 13 -2 14 -9 3
-5 -8 -11 -9 -15 -3 -3 5 -16 8 -28 7 -13 -1 -29 -3 -35 -4 -7 0 -13 -7 -13
-15 0 -8 -8 -13 -17 -11 -10 1 -24 -2 -30 -8 -7 -5 -13 -6 -13 -2 0 5 -8 -2
-19 -13 -19 -23 -48 -31 -35 -10 5 7 2 9 -9 5 -11 -4 -18 2 -25 21 -8 26 -10
26 -110 29 -56 2 -101 -1 -101 -5 4 -21 -3 -22 -22 -1 -15 18 -19 20 -15 6 9
-28 -22 -32 -49 -7 -14 13 -28 21 -31 17 -3 -3 -16 -2 -29 3 -24 9 -53 -9 -38
-23 12 -13 -22 -7 -51 8 -15 8 -46 15 -69 15 -25 0 -44 6 -52 16 -9 13 -31 17
-88 19 -56 2 -80 7 -93 19 -10 11 -19 14 -23 7 -4 -7 -15 -6 -31 2 -18 10 -32
10 -53 3 -24 -9 -31 -8 -41 7 -15 19 -41 23 -51 6 -4 -6 -13 -8 -21 -5 -8 3
-14 1 -14 -4 0 -5 -7 -6 -17 -3 -11 4 -14 3 -9 -6 6 -8 -2 -11 -28 -9 -27 2
-33 5 -24 15 8 10 5 13 -11 13 -11 0 -21 -6 -21 -14 0 -15 -46 -11 -56 5 -3 5
-13 5 -23 -1 -14 -7 -24 -4 -41 10 -13 11 -30 19 -39 19 -13 -1 -13 -2 2 -6
25 -7 21 -20 -8 -25 -16 -4 -25 -1 -25 8 0 7 -6 15 -12 17 -10 4 -9 8 2 17 13
10 12 11 -3 6 -12 -4 -17 -2 -15 6 3 7 -8 23 -23 35 -28 24 -69 31 -69 12z
m1323 -204 c-3 -9 -8 -14 -10 -11 -3 3 -2 9 2 15 9 16 15 13 8 -4z m76 -26 c1
-3 -6 -6 -14 -6 -15 0 -21 28 -8 41 6 6 20 -16 22 -35z"></path>
<path d="M6841 4784 c0 -11 3 -14 6 -6 3 7 2 16 -1 19 -3 4 -6 -2 -5 -13z"></path>
<path d="M6583 4763 c9 -2 23 -2 30 0 6 3 -1 5 -18 5 -16 0 -22 -2 -12 -5z"></path>
<path d="M6508 4753 c7 -3 16 -2 19 1 4 3 -2 6 -13 5 -11 0 -14 -3 -6 -6z"></path>
<path d="M215 3680 c3 -6 -1 -7 -10 -4 -22 9 -44 -13 -40 -38 3 -16 2 -19 -6
-11 -6 6 -19 9 -28 6 -14 -4 -14 -3 -1 6 8 5 11 13 7 17 -4 4 -13 2 -19 -4
-10 -10 -10 -17 1 -35 8 -12 10 -19 6 -15 -12 11 -35 -11 -35 -33 0 -16 4 -17
26 -9 19 8 29 6 40 -4 9 -9 10 -17 4 -21 -5 -3 -14 -14 -20 -25 -8 -15 -6 -17
9 -13 10 3 22 0 25 -6 11 -17 23 -13 29 9 4 17 2 20 -15 14 -17 -5 -20 -3 -15
11 4 9 7 23 7 31 0 8 4 14 9 14 11 0 23 -34 27 -76 3 -27 0 -31 -16 -27 -11 3
-20 0 -20 -6 0 -6 6 -11 14 -11 8 0 17 -7 20 -16 9 -22 8 -24 -9 -24 -8 0 -15
7 -15 16 0 8 -4 12 -10 9 -5 -3 -10 -2 -10 4 0 7 -8 7 -25 1 -20 -7 -25 -6
-25 5 0 15 -11 18 -62 18 -17 0 -28 5 -28 13 0 8 -7 14 -15 14 -13 0 -15 -201
-15 -1745 l0 -1745 3500 0 3500 0 0 159 c0 118 -3 161 -12 164 -10 4 -10 6 0
6 8 1 12 18 12 50 0 46 -2 50 -27 54 l-28 4 28 2 c22 1 27 6 27 27 0 14 -4 23
-9 19 -5 -3 -12 -1 -16 5 -3 5 1 10 9 10 29 0 18 30 -11 31 -25 0 -25 1 -8 8
11 5 23 7 28 4 4 -2 7 0 7 6 0 5 -24 12 -52 14 l-53 3 53 2 c48 2 52 4 52 27
0 23 -4 25 -47 26 -27 0 -97 4 -158 8 -60 4 -119 4 -130 0 l-20 -8 20 -1 c16
0 17 -2 5 -10 -8 -5 -12 -10 -10 -12 3 -2 69 0 147 6 104 7 149 6 165 -2 19
-10 7 -11 -67 -11 -49 0 -148 -1 -220 -4 -74 -3 -111 -2 -85 2 43 8 -105 10
-663 12 -126 1 -231 -2 -234 -5 -4 -3 27 -6 69 -6 41 0 78 -3 81 -6 12 -12 82
-14 104 -3 17 9 25 9 37 -4 14 -14 10 -15 -37 -19 -28 -2 -74 0 -102 5 -27 4
-81 10 -120 13 -38 3 -71 9 -73 13 -1 4 -19 5 -40 2 l-37 -5 30 -7 c17 -4 49
-7 72 -8 23 0 44 -5 47 -10 4 -5 -56 -7 -142 -4 -81 3 -143 2 -139 -3 4 -4
175 -9 379 -10 258 -2 374 -6 382 -14 8 -8 -17 -10 -98 -5 -65 4 -106 3 -103
-2 4 -6 -20 -8 -56 -7 -216 9 -524 10 -462 3 39 -5 144 -11 235 -13 91 -2 197
-5 235 -7 l70 -2 -50 -7 c-69 -10 -433 -3 -471 8 -18 6 -37 6 -45 1 -8 -5 -9
-9 -4 -9 6 0 66 -7 135 -15 72 -9 152 -12 187 -9 45 5 67 3 79 -6 10 -9 18
-10 22 -4 9 13 142 15 142 3 0 -5 -30 -9 -66 -9 -41 0 -63 -4 -59 -10 3 -5 21
-10 38 -11 18 0 26 -3 18 -6 -8 -3 -53 0 -100 8 -84 13 -85 14 -41 19 25 4
-18 6 -95 6 -77 0 -165 2 -195 6 -256 28 -368 38 -382 34 -12 -2 -18 2 -18 11
0 14 11 15 73 9 39 -3 113 -8 162 -11 l90 -4 -70 9 c-38 5 -101 13 -140 18
-68 8 -72 18 -10 24 22 3 17 5 -19 9 -32 3 -54 0 -62 -8 -7 -7 -19 -13 -26
-13 -10 0 -9 3 2 10 13 8 12 10 -5 11 -11 1 -36 1 -55 0 -25 -1 -31 1 -20 7
21 13 73 24 67 15 -3 -4 14 -7 36 -6 23 1 51 2 62 2 16 1 17 3 5 10 -8 6 -28
7 -45 4 -29 -5 -29 -5 -10 10 25 21 7 22 -22 2 -15 -10 -22 -12 -25 -4 -3 9
-9 9 -25 0 -26 -13 -66 -15 -58 -1 3 5 13 6 22 3 10 -4 14 -2 10 4 -12 20 5
43 32 44 l26 1 -25 7 c-27 8 -50 -3 -50 -25 0 -8 -4 -14 -10 -14 -15 0 -8 20
18 49 13 14 19 27 13 29 -6 2 1 20 16 40 l27 37 -40 -36 c-43 -40 -70 -53 -79
-39 -4 6 5 10 19 10 14 0 26 5 26 10 0 6 -7 10 -15 10 -9 0 -12 6 -9 15 4 8
10 15 16 15 5 0 16 6 23 14 12 11 10 14 -13 14 -17 0 -36 -11 -53 -29 -25 -28
-42 -38 -36 -21 1 4 -3 7 -8 7 -5 0 -9 -3 -8 -7 2 -5 -3 -8 -11 -8 -10 0 -12
7 -8 22 3 14 2 19 -6 14 -7 -4 -12 -2 -12 3 0 6 8 11 17 11 15 0 15 1 -1 13
-14 11 -24 11 -42 3 -13 -6 -24 -14 -24 -18 0 -5 -7 -8 -15 -8 -7 0 -18 -8
-24 -17 -7 -14 -12 -15 -24 -5 -8 7 -22 10 -31 6 -20 -8 -20 3 0 61 8 26 13
52 10 58 -2 7 -5 2 -5 -9 -1 -12 -8 -25 -17 -28 -8 -3 -12 -11 -8 -17 4 -8 3
-9 -5 -5 -7 5 -19 -9 -32 -38 -11 -25 -26 -46 -34 -46 -16 0 -16 21 0 32 6 5
5 8 -3 8 -14 0 -23 -19 -27 -53 -6 -51 -6 -52 -15 -32 -8 18 -9 18 -9 2 -1
-10 -5 -16 -10 -12 -5 3 -12 1 -16 -5 -4 -6 -11 -5 -21 4 -19 19 -18 27 3 19
11 -4 14 -3 9 5 -4 7 -2 12 3 12 12 0 15 66 4 73 -5 3 -9 -6 -10 -20 0 -15
-17 -40 -38 -61 -27 -26 -33 -37 -23 -43 9 -6 6 -9 -9 -9 -17 0 -21 4 -16 17
4 10 11 21 17 25 7 5 6 8 -3 8 -11 0 -9 4 5 14 10 8 16 18 12 22 -4 4 -3 13 3
21 9 10 8 13 -5 13 -9 0 -16 -4 -16 -10 0 -5 -6 -10 -14 -10 -8 0 -16 -6 -19
-12 -2 -7 -7 -11 -10 -8 -8 8 14 134 24 141 5 3 11 15 14 27 2 12 7 28 11 35
9 15 -38 -23 -49 -40 -4 -7 -14 -10 -22 -7 -10 4 -18 -3 -25 -20 -12 -32 -24
-35 -15 -3 6 21 5 21 -8 -2 -8 -13 -17 -19 -20 -14 -3 5 3 24 14 41 24 41 25
56 0 19 -13 -20 -20 -25 -24 -15 -3 7 -6 4 -6 -9 -1 -12 -6 -25 -11 -28 -6 -4
-8 -11 -5 -16 3 -5 -1 -6 -10 -3 -11 5 -13 10 -5 19 6 8 8 30 4 55 -7 41 -7
42 -20 19 -7 -13 -13 -18 -14 -11 0 8 -5 10 -12 6 -10 -6 -10 -4 -2 7 6 8 11
32 12 54 0 38 0 39 -10 13 -8 -25 -30 -41 -27 -20 1 4 0 14 -1 22 -1 8 -8 -16
-17 -55 -17 -83 -30 -102 -39 -57 -4 17 -10 29 -15 26 -5 -3 -9 3 -9 14 0 10
-5 33 -11 51 -9 25 -14 29 -25 20 -18 -15 -18 -29 0 -29 14 0 30 -39 20 -49
-3 -3 -7 5 -11 17 -6 24 -19 30 -21 10 -4 -52 -4 -111 0 -153 3 -28 3 -40 1
-27 -2 12 -8 22 -13 22 -4 0 -6 10 -2 22 3 12 1 19 -5 15 -5 -3 -10 -1 -11 6
-4 32 -20 90 -21 75 0 -9 -6 -18 -13 -20 -6 -2 -12 -15 -14 -29 -1 -13 -3 -27
-3 -31 -1 -5 -6 -8 -12 -8 -6 0 -8 9 -4 21 5 14 3 19 -3 15 -14 -8 -24 26 -16
50 6 15 4 17 -6 7 -13 -12 -12 -17 17 -127 4 -14 1 -17 -10 -13 -9 3 -17 1
-20 -6 -2 -7 -12 14 -22 46 -10 32 -20 55 -23 53 -2 -3 0 -18 6 -34 7 -20 6
-33 -3 -45 -12 -16 -13 -16 -19 5 -3 13 -6 46 -7 73 l-1 50 -9 -44 c-5 -24 -6
-47 -4 -52 3 -4 0 -11 -6 -15 -8 -5 -10 4 -7 30 3 26 1 35 -8 32 -8 -3 -15 8
-20 27 -6 28 -8 30 -15 12 l-8 -20 -2 20 c-1 11 -3 25 -4 30 -2 6 -3 15 -4 20
-1 6 -7 -1 -12 -14 -7 -18 -14 -22 -33 -17 -20 5 -23 3 -19 -17 4 -17 -2 -26
-22 -35 -15 -7 -24 -8 -20 -2 3 5 1 10 -5 10 -7 0 -9 9 -6 23 3 12 3 16 0 9
-5 -10 -11 -9 -27 5 -20 17 -20 17 -14 0 4 -10 7 -26 7 -35 0 -15 2 -15 10 -2
5 8 10 10 10 4 0 -6 -3 -14 -7 -18 -5 -4 -9 -12 -9 -17 -1 -5 -2 -13 -3 -19 0
-5 -6 -10 -12 -10 -7 0 -8 12 -4 32 6 31 5 32 -10 14 -15 -20 -15 -20 -16 0 0
14 -2 15 -6 4 -3 -8 -15 -26 -27 -39 l-21 -24 22 12 c12 6 28 11 35 11 7 0 -1
-7 -18 -16 -17 -8 -37 -26 -44 -40 -7 -13 -17 -24 -22 -24 -4 0 -8 -6 -8 -12
1 -7 15 4 33 25 24 28 38 36 50 31 11 -4 16 -13 13 -21 -3 -8 -6 -20 -7 -26 0
-7 -4 -3 -9 8 -6 17 -9 14 -15 -18 -8 -43 -25 -59 -25 -25 0 18 -2 20 -10 8
-5 -8 -10 -11 -10 -6 0 6 -7 1 -16 -10 -15 -19 -15 -18 -11 4 3 12 1 22 -5 22
-5 0 -7 4 -3 9 3 5 1 12 -4 16 -5 3 -15 -3 -21 -12 -9 -14 -10 -9 -6 27 3 25
8 56 11 70 3 14 3 19 -1 13 -3 -7 -10 -13 -15 -13 -13 0 -11 44 4 59 10 11 10
13 0 7 -7 -4 -13 -4 -13 0 0 9 48 53 52 48 2 -2 4 7 5 19 2 21 1 20 -18 -6
-12 -15 -30 -27 -40 -27 -11 0 -17 -4 -14 -10 3 -5 1 -10 -5 -10 -6 0 -27 -17
-45 -38 -19 -20 -35 -31 -35 -25 0 15 -21 13 -33 -2 -5 -5 -6 4 -2 20 6 29 6
29 -9 8 -9 -11 -20 -33 -26 -48 -6 -15 -13 -25 -16 -22 -3 3 0 15 6 27 7 12
13 47 14 77 l2 56 -23 -49 c-12 -27 -20 -56 -17 -64 4 -12 2 -12 -7 -3 -9 9
-9 22 -1 55 13 49 1 72 -20 39 -19 -30 -31 -26 -23 9 5 23 3 30 -9 30 -11 0
-16 -9 -16 -29 0 -17 -5 -33 -11 -37 -8 -4 -9 4 -5 27 5 25 4 29 -3 13 -5 -11
-12 -47 -16 -80 -10 -82 -17 -87 -30 -24 -12 57 0 115 28 132 8 5 8 8 1 8 -18
0 -31 -21 -45 -70 -15 -53 -40 -89 -31 -44 3 19 1 25 -7 20 -15 -10 -14 6 2
24 10 12 9 12 -5 1 -15 -11 -21 -11 -33 -1 -13 10 -15 9 -15 -9 0 -11 -5 -21
-11 -21 -7 0 -9 9 -6 21 7 26 -28 66 -37 42 -3 -8 -6 -25 -6 -38 0 -12 -7 -28
-15 -35 -14 -11 -14 -10 -5 15 l11 29 -28 -28 c-21 -22 -29 -25 -31 -13 -4 21
-32 30 -38 12 -4 -8 -10 -13 -15 -10 -4 3 -5 13 -2 22 4 11 2 14 -8 11 -8 -3
-13 -16 -11 -29 1 -17 0 -20 -7 -10 -5 7 -13 11 -19 7 -6 -3 -13 0 -15 6 -4
10 -6 10 -6 0 -1 -21 -21 -3 -21 19 0 11 -5 17 -10 14 -6 -3 -7 -17 -4 -30 3
-12 1 -26 -5 -29 -6 -4 -11 1 -11 11 0 10 -4 24 -9 31 -5 9 -7 -2 -5 -27 1
-23 -2 -41 -7 -41 -5 0 -9 23 -9 51 0 44 -2 50 -15 39 -10 -8 -13 -22 -9 -39
4 -20 3 -23 -5 -11 -6 8 -11 26 -11 40 0 14 -4 31 -9 39 -12 19 -24 -4 -17
-32 3 -12 1 -29 -4 -37 -8 -12 -10 -12 -10 4 0 18 -2 18 -25 -4 l-25 -23 0 27
c0 17 4 25 11 20 8 -4 8 0 0 15 -14 25 -23 28 -14 4 5 -11 3 -14 -6 -8 -18 10
-4 -53 15 -73 8 -7 14 -19 13 -25 0 -9 -2 -8 -6 1 -2 6 -9 12 -14 12 -6 0 -8
-4 -4 -9 9 -15 -32 -23 -53 -10 -12 8 -17 19 -14 32 4 17 1 19 -26 15 -17 -2
-34 0 -36 6 -2 6 -5 3 -5 -6 -1 -10 -6 -18 -11 -18 -6 0 -8 12 -5 28 6 26 6
27 -10 7 -11 -12 -16 -14 -13 -5 3 8 -2 21 -9 29 -12 11 -12 15 -1 22 10 7 10
9 -2 10 -8 1 -21 1 -29 0 -7 -2 -10 3 -6 9 4 6 13 9 21 6 8 -3 14 -1 14 4 0
17 -5 25 -14 22 -5 -2 -6 6 -3 17 3 14 1 18 -10 14 -11 -4 -14 -1 -11 8 3 9
17 13 41 12 21 -1 41 5 48 14 11 12 10 14 -2 13 -24 -4 -39 0 -39 8 0 4 19 9
41 11 23 1 45 2 48 3 3 0 13 0 21 -1 13 -1 13 -2 0 -11 -18 -11 -12 -17 25
-24 16 -3 38 -16 48 -28 l19 -23 -6 26 c-5 23 -3 26 18 24 29 -4 29 18 0 40
-15 12 -15 14 -2 9 12 -4 16 0 15 14 0 12 -6 18 -14 15 -7 -3 -13 -1 -13 3 0
12 -111 9 -119 -3 -9 -14 -129 -9 -143 6 -11 11 -6 12 24 7 20 -4 39 -3 42 2
2 4 24 9 48 10 70 3 118 13 112 23 -8 14 40 11 55 -3 7 -7 11 -8 10 -3 -2 6 2
19 8 31 10 17 8 23 -8 37 -17 15 -19 15 -19 1 0 -11 -5 -14 -16 -10 -9 3 -19
6 -22 6 -4 0 0 5 8 10 10 6 11 10 3 10 -7 0 -13 8 -13 17 0 9 -3 13 -7 10 -3
-4 -12 1 -20 11 -10 13 -13 14 -11 2 2 -12 -8 -15 -52 -13 -30 1 -69 4 -86 6
-34 4 -79 26 -54 27 30 0 -6 19 -50 25 -25 4 -46 11 -48 16 -2 5 -12 4 -24 -2
-11 -6 -27 -7 -36 -3 -18 8 -28 10 -52 13 -8 0 -28 14 -45 29 -30 28 -36 29
-116 16 -22 -4 -39 -2 -43 5 -4 6 -20 11 -37 11 -16 0 -29 4 -29 10 0 5 -7 7
-15 3 -15 -5 -65 41 -65 60 0 5 -4 5 -10 2 -17 -11 -32 5 -19 21 9 11 9 14 0
14 -7 0 -9 5 -6 10 3 6 -1 10 -10 10 -12 0 -15 5 -11 16 4 10 2 14 -6 11 -7
-2 -12 -10 -10 -16 1 -7 -2 -9 -8 -6 -6 4 -9 13 -6 21 7 18 -4 18 -42 -1 -45
-23 -75 -27 -68 -10 3 8 -3 17 -15 20 -10 4 -17 10 -14 15 9 15 -16 23 -28 10
-7 -7 -7 -10 -2 -7 6 3 11 -6 12 -21 0 -15 -1 -20 -4 -11 -2 9 -15 21 -28 27
-20 9 -23 9 -18 -5 5 -13 0 -15 -29 -11 -27 3 -39 -1 -47 -14 -14 -22 -44 -23
-65 -2 -9 8 -16 12 -16 7 0 -4 -5 -1 -10 7 -8 12 -12 12 -18 3 -6 -10 -17 -8
-47 7 -38 19 -38 20 -11 20 15 0 39 9 53 20 14 11 32 20 39 20 8 0 14 9 14 21
0 13 8 23 21 26 16 4 17 8 7 14 -9 6 -6 9 12 9 18 0 21 3 11 9 -11 7 -11 9 0
13 8 3 20 -2 28 -10 8 -7 24 -12 37 -9 13 2 40 0 61 -4 l38 -8 -42 2 c-24 2
-43 -1 -43 -5 0 -9 76 -19 116 -16 21 2 30 7 27 16 -4 9 -9 10 -18 2 -9 -8
-15 -8 -20 0 -3 5 1 10 9 10 9 0 16 5 16 12 0 6 7 3 16 -8 8 -10 12 -13 8 -5
-6 11 -1 13 24 8 17 -4 34 -2 37 3 3 5 -9 11 -27 13 -21 3 -16 4 14 3 36 -1
44 -4 36 -14 -13 -15 4 -16 19 -1 7 7 12 6 17 -6 3 -9 2 -13 -4 -10 -6 3 -10
1 -10 -5 0 -6 -4 -9 -9 -5 -5 3 -12 1 -15 -4 -3 -5 1 -12 10 -15 22 -8 26 -8
19 3 -5 9 53 31 81 31 7 0 15 8 19 18 5 14 4 15 -6 5 -15 -15 -33 -17 -24 -3
3 6 0 10 -7 10 -9 0 -9 3 2 10 8 5 24 7 35 3 18 -5 18 -4 6 11 -20 24 -7 30
31 13 53 -24 70 -29 115 -37 23 -4 40 -3 37 2 -3 4 -20 8 -39 8 -19 0 -36 4
-39 8 -2 4 12 6 32 4 28 -2 33 -1 22 7 -16 11 -13 13 20 13 33 0 36 -2 20 -12
-16 -10 -11 -11 66 -14 17 -1 38 -7 48 -15 14 -12 16 -12 10 4 -5 12 -4 16 3
12 6 -4 15 -1 21 6 6 7 29 12 51 12 22 0 38 1 36 3 -2 2 4 12 12 22 13 14 20
16 43 7 20 -8 35 -8 52 1 21 10 21 10 -8 5 -19 -3 -43 1 -60 10 l-29 16 41 -6
c25 -3 44 -1 48 6 4 6 0 11 -10 11 -16 0 -15 2 4 20 23 22 37 26 26 8 -4 -7
-3 -8 4 -4 6 4 8 14 5 22 -5 13 2 15 38 14 61 -3 69 -1 69 9 0 6 -19 12 -42
14 l-43 4 45 1 c69 1 70 1 64 17 -5 11 0 15 17 14 13 0 18 -3 12 -6 -23 -9
-14 -25 10 -18 21 6 21 5 3 -9 -17 -14 -15 -15 20 -15 43 0 150 -18 121 -20
-16 -1 -17 -3 -3 -16 18 -18 30 -20 20 -2 -6 8 -3 8 9 -1 9 -8 21 -11 26 -8 6
4 8 -2 6 -13 -3 -15 1 -19 17 -16 28 6 49 25 41 39 -4 6 1 5 11 -3 13 -11 19
-12 29 -2 9 10 8 11 -7 5 -14 -6 -17 -4 -11 6 6 10 2 12 -18 8 -18 -3 -24 -1
-20 8 3 7 16 11 32 9 15 -2 34 1 42 6 11 7 10 9 -6 10 -11 0 -14 3 -7 6 6 2
12 12 12 20 0 12 8 14 38 9 20 -3 45 -6 55 -6 11 0 17 -8 18 -22 0 -13 3 -17
6 -10 2 6 11 12 19 12 9 0 12 -5 8 -11 -4 -7 1 -7 16 1 16 9 20 9 15 0 -5 -8
7 -10 42 -8 26 2 47 8 46 13 -1 6 14 10 35 8 l37 -3 -35 11 c-25 8 -40 8 -52
0 -11 -7 -26 -7 -40 -2 -19 7 -14 10 37 20 86 18 127 33 112 43 -8 5 -4 8 11
8 13 0 22 6 22 15 0 9 -10 15 -22 16 -22 1 -22 1 2 12 18 8 25 20 25 37 0 15
5 24 13 22 20 -4 14 8 -10 17 l-22 8 22 5 c12 4 20 2 16 -3 -3 -5 1 -9 10 -9
8 0 22 -3 30 -6 12 -5 15 -2 10 9 -5 14 -1 15 25 7 19 -5 31 -5 31 1 0 5 -5 9
-12 9 -6 0 -8 3 -5 6 4 4 19 2 34 -4 15 -6 41 -13 56 -16 19 -5 27 -12 25 -23
-2 -10 5 -19 16 -21 11 -2 16 0 12 6 -3 6 -1 14 4 17 7 5 5 12 -7 22 -10 8
-12 12 -5 8 14 -7 57 4 48 12 -3 3 -1 14 5 24 8 16 6 19 -13 19 l-23 1 23 13
c33 18 10 31 -55 31 -28 0 -49 4 -46 8 2 4 -22 7 -54 6 -71 -1 -122 6 -136 20
-8 8 -7 11 4 11 12 0 12 2 -1 10 -8 5 -10 10 -5 11 17 2 78 9 110 13 17 3 46
5 65 6 29 2 24 4 -27 14 -66 12 -84 20 -50 22 12 1 38 5 57 8 19 3 58 8 85 11
28 4 66 10 85 15 19 4 148 11 285 14 138 4 333 11 434 17 453 26 1030 29 1561
8 157 -6 471 -13 698 -16 l412 -4 0 598 0 598 -47 -3 c-27 -2 -71 -5 -100 -7
-28 -2 -57 -6 -62 -10 -14 -8 -41 -14 -111 -27 -92 -16 -203 -39 -235 -49 -23
-8 -32 -6 -41 6 -6 8 -17 15 -25 15 -39 0 -227 -54 -244 -70 -22 -21 -138 -80
-155 -80 -7 0 -32 -13 -57 -30 -24 -17 -48 -30 -54 -30 -5 0 -47 -18 -93 -41
-46 -22 -90 -42 -97 -43 -8 -1 -28 -10 -46 -19 -23 -12 -34 -14 -39 -6 -5 8
-10 6 -16 -5 -5 -9 -19 -16 -31 -16 -13 0 -34 -8 -47 -17 -14 -10 -36 -16 -49
-14 -23 3 -42 -4 -103 -35 -14 -8 -37 -14 -51 -14 -13 0 -30 -7 -38 -16 -10
-12 -23 -14 -53 -10 -34 5 -44 3 -58 -14 -21 -23 -43 -27 -35 -5 8 20 -5 26
-39 16 -21 -6 -28 -13 -26 -27 2 -18 2 -18 -9 1 -7 11 -13 21 -15 23 -4 6 -48
-22 -57 -35 -4 -7 -24 -13 -43 -13 -21 0 -37 -6 -40 -15 -5 -11 -10 -12 -26
-4 -14 8 -18 8 -14 0 5 -7 -13 -9 -54 -8 -40 2 -65 -2 -72 -10 -14 -17 -28
-16 -49 3 -14 13 -21 13 -41 3 -13 -6 -26 -17 -30 -24 -4 -7 -18 -10 -32 -8
-19 4 -28 -1 -40 -23 -8 -16 -15 -24 -16 -17 -1 26 -27 38 -81 35 -30 -2 -76
-4 -104 -5 -27 0 -52 -4 -55 -8 -3 -4 -22 -1 -43 6 -32 11 -43 11 -65 -1 -14
-7 -36 -11 -48 -8 -12 3 -25 1 -28 -5 -4 -6 -21 -11 -37 -11 -17 0 -32 -6 -35
-15 -4 -8 -11 -15 -17 -15 -6 0 -7 3 -4 7 4 3 -2 13 -14 21 -18 12 -22 12 -39
-3 -14 -13 -18 -26 -14 -56 4 -30 2 -37 -9 -33 -8 3 -17 -2 -21 -11 -3 -9 -11
-13 -17 -9 -7 4 -7 9 -1 13 5 3 12 16 16 27 5 18 1 24 -22 32 -27 9 -30 8 -45
-24 -12 -25 -13 -34 -4 -34 6 -1 2 -9 -10 -19 -23 -20 -34 -76 -18 -100 6 -10
4 -12 -5 -6 -10 6 -12 4 -7 -7 4 -12 -2 -16 -26 -17 -59 -2 -72 -4 -79 -15
-12 -16 -27 12 -20 37 3 12 1 18 -5 14 -13 -8 -66 39 -58 52 3 6 2 11 -4 11
-5 0 -12 14 -16 30 -4 17 -13 30 -21 30 -8 0 -14 6 -14 14 0 21 -72 27 -88 7
-8 -9 -11 -10 -7 -3 3 6 2 12 -3 12 -5 0 -14 -12 -21 -27 -10 -21 -14 -24 -21
-13 -7 12 -12 12 -21 3 -10 -10 -15 -9 -23 2 -13 18 -53 27 -61 14 -11 -17
-25 -9 -25 14 0 13 -5 28 -11 34 -8 8 -8 13 0 17 20 13 13 39 -9 33 -11 -3
-17 -1 -14 4 7 13 -5 49 -17 49 -6 0 -17 7 -26 16 -11 11 -19 12 -26 5 -6 -6
-18 -11 -26 -11 -8 0 -12 3 -8 6 3 3 -5 17 -18 30 -23 23 -27 23 -70 12 -25
-7 -45 -18 -45 -25 0 -7 -9 -13 -20 -13 -25 0 -62 -39 -55 -60 3 -10 0 -17 -9
-17 -9 0 -13 4 -10 9 3 4 -2 11 -11 14 -11 4 -13 9 -6 13 16 10 -45 69 -96 92
-33 15 -48 17 -63 9 -11 -6 -20 -15 -20 -19 0 -15 -31 -21 -51 -10 -26 13 -56
3 -62 -21 -7 -28 -84 -28 -120 0 -33 26 -41 25 -66 -6 -15 -19 -21 -22 -21
-10 0 9 -8 34 -17 56 -17 38 -36 48 -77 41 -5 -1 -16 5 -26 14 -9 8 -20 12
-23 9 -4 -4 -13 -1 -21 5 -11 10 -24 10 -48 2 -20 -6 -50 -7 -76 -2 -34 7 -50
5 -79 -10 -45 -23 -43 -23 -43 -5 0 8 -14 24 -30 36 -24 17 -31 18 -35 8 -3
-8 -16 -15 -28 -15 -12 -1 -29 -11 -39 -23 -17 -21 -43 -26 -53 -10 -3 6 -2
10 3 10 13 0 22 39 11 46 -5 3 -7 10 -4 15 10 15 -23 22 -54 11 -19 -7 -32 -7
-39 0 -10 10 -62 -17 -62 -32 0 -9 -26 -20 -45 -20 -5 0 -10 5 -10 12 0 7 -13
20 -30 29 -29 17 -32 16 -82 -3 -29 -10 -53 -25 -53 -33 0 -7 -7 -16 -16 -19
-19 -7 -74 23 -74 41 0 8 -11 18 -24 23 -13 5 -27 14 -31 19 -12 21 -52 10
-90 -24 -21 -20 -40 -33 -43 -30 -3 3 -11 0 -18 -6 -9 -7 -14 -5 -19 10 -4 13
-11 18 -22 14 -10 -4 -14 -2 -9 5 3 6 -11 29 -32 51 -36 38 -40 39 -59 26 -19
-14 -21 -13 -16 5 4 16 2 19 -13 14 -11 -4 -25 -12 -33 -18 -12 -9 -13 -8 -8
7 4 9 2 17 -4 17 -6 0 -8 7 -5 16 5 12 2 15 -10 10 -8 -3 -18 -6 -20 -6 -2 0
-4 -7 -4 -16 0 -8 -4 -13 -9 -9 -5 3 -12 -4 -16 -15 -11 -34 -38 -21 -49 23
l-7 29 -25 -27 c-19 -20 -28 -24 -38 -16 -7 6 -16 8 -19 4 -4 -3 -7 -1 -7 6 0
7 -10 10 -25 7 -31 -6 -49 23 -40 62 5 24 1 29 -25 39 -16 6 -30 18 -30 26 0
9 -12 24 -27 35 -37 25 -116 56 -108 41 5 -7 -1 -6 -16 2 -13 7 -34 12 -47 10
-18 -2 -22 2 -20 15 5 31 -27 27 -60 -7 -18 -18 -32 -28 -32 -21 0 6 5 14 10
17 6 4 7 11 4 17 -4 6 -3 8 3 5 15 -9 53 22 53 44 0 10 -7 19 -15 19 -8 0 -15
5 -15 11 0 8 -14 10 -42 6 -24 -3 -37 -3 -30 0 10 4 10 8 1 19 -13 16 -44 19
-34 4z m0 -40 c-3 -5 -12 -10 -18 -10 -7 0 -6 4 3 10 19 12 23 12 15 0z m28
-52 c16 -17 15 -64 -1 -80 -12 -11 -13 -10 -10 7 2 11 -3 26 -12 33 -8 8 -9
11 -2 7 8 -4 12 1 12 16 0 18 -2 19 -15 9 -14 -12 -22 0 -8 13 10 10 23 8 36
-5z m17 -168 c0 -5 -4 -10 -10 -10 -5 0 -10 5 -10 10 0 6 5 10 10 10 6 0 10
-4 10 -10z m2850 -384 c0 -3 -4 -8 -10 -11 -5 -3 -10 -1 -10 4 0 6 5 11 10 11
6 0 10 -2 10 -4z m1480 -89 c0 -7 -9 -13 -20 -14 -22 -2 -27 12 -7 20 21 9 27
8 27 -6z m-215 -18 c11 -17 -1 -21 -15 -4 -8 9 -8 15 -2 15 6 0 14 -5 17 -11z
m-280 -58 c3 -5 1 -12 -5 -16 -5 -3 -10 1 -10 9 0 18 6 21 15 7z m-255 -141
c0 -5 -4 -10 -10 -10 -5 0 -10 5 -10 10 0 6 5 10 10 10 6 0 10 -4 10 -10z
m-430 -504 c0 -2 -7 -7 -16 -10 -8 -3 -12 -2 -9 4 6 10 25 14 25 6z m77 -32
c-3 -3 -12 -4 -19 -1 -8 3 -5 6 6 6 11 1 17 -2 13 -5z m-264 -121 c-7 -2 -19
-2 -25 0 -7 3 -2 5 12 5 14 0 19 -2 13 -5z m-776 -59 c-3 -3 -12 -4 -19 -1 -8
3 -5 6 6 6 11 1 17 -2 13 -5z m226 -1 c-7 -2 -19 -2 -25 0 -7 3 -2 5 12 5 14
0 19 -2 13 -5z m280 0 c-7 -2 -19 -2 -25 0 -7 3 -2 5 12 5 14 0 19 -2 13 -5z
m-1420 -20 c-7 -2 -19 -2 -25 0 -7 3 -2 5 12 5 14 0 19 -2 13 -5z m1114 -19
c-3 -3 -12 -4 -19 -1 -8 3 -5 6 6 6 11 1 17 -2 13 -5z m33 -23 c0 -5 -9 -7
-20 -4 -11 3 -20 7 -20 9 0 2 9 4 20 4 11 0 20 -4 20 -9z m183 2 c-7 -2 -21
-2 -30 0 -10 3 -4 5 12 5 17 0 24 -2 18 -5z m-95 -10 c-16 -2 -40 -2 -55 0
-16 2 -3 4 27 4 30 0 43 -2 28 -4z m67 -53 c-3 -5 -13 -10 -21 -10 -8 0 -14 5
-14 10 0 6 9 10 21 10 11 0 17 -4 14 -10z m-965 -44 c0 -2 -7 -7 -16 -10 -8
-3 -12 -2 -9 4 6 10 25 14 25 6z m36 -25 c-3 -5 -15 -7 -26 -4 -28 7 -25 13 6
13 14 0 23 -4 20 -9z m380 2 c-10 -10 -76 -10 -76 -1 0 5 19 8 42 8 23 0 38
-3 34 -7z m-356 -17 c0 -3 -4 -8 -10 -11 -5 -3 -10 -1 -10 4 0 6 5 11 10 11 6
0 10 -2 10 -4z m60 -8 c0 -4 -4 -8 -9 -8 -6 0 -12 4 -15 8 -3 5 1 9 9 9 8 0
15 -4 15 -9z m-510 -18 c0 -3 -22 -7 -50 -8 -30 -1 -50 2 -50 8 0 7 20 10 50
9 28 -2 50 -5 50 -9z m320 -46 c0 -2 -9 0 -20 6 -11 6 -20 13 -20 16 0 2 9 0
20 -6 11 -6 20 -13 20 -16z m-520 -94 c0 -5 -4 -10 -10 -10 -5 0 -10 5 -10 10
0 6 5 10 10 10 6 0 10 -4 10 -10z m500 -154 c0 -3 -4 -8 -10 -11 -5 -3 -10 -1
-10 4 0 6 5 11 10 11 6 0 10 -2 10 -4z m703 -273 c-7 -2 -19 -2 -25 0 -7 3 -2
5 12 5 14 0 19 -2 13 -5z m1344 -325 c-3 -8 -6 -5 -6 6 -1 11 2 17 5 13 3 -3
4 -12 1 -19z m481 9 c14 0 15 -7 2 -27 -8 -13 -10 -12 -10 3 0 9 -4 17 -9 17
-5 0 -11 -8 -13 -17 -3 -12 -6 -9 -10 10 -4 23 -3 27 11 21 9 -3 22 -7 29 -7z
m-831 -19 c2 -16 0 -19 -6 -9 -6 8 -14 10 -22 5 -12 -6 -12 -5 0 9 18 23 26
21 28 -5z m328 12 c3 -5 1 -10 -4 -10 -6 0 -11 5 -11 10 0 6 2 10 4 10 3 0 8
-4 11 -10z m342 -32 c-3 -8 -6 -5 -6 6 -1 11 2 17 5 13 3 -3 4 -12 1 -19z
m-702 -37 c-4 -17 -11 -33 -16 -36 -5 -4 -7 0 -5 7 3 7 7 26 11 42 3 15 8 26
11 23 3 -3 3 -19 -1 -36z m294 -16 c0 -5 -6 -1 -14 9 -8 11 -15 24 -15 30 0 5
7 1 15 -10 8 -10 14 -23 14 -29z m473 23 c-7 -7 -12 -8 -12 -2 0 14 12 26 19
19 2 -3 -1 -11 -7 -17z m-734 -22 c-1 -22 -6 -32 -14 -29 -9 3 -10 12 -2 34
13 38 19 37 16 -5z m279 12 c-3 -8 -6 -5 -6 6 -1 11 2 17 5 13 3 -3 4 -12 1
-19z m-344 -16 c-3 -12 -12 -22 -19 -22 -12 0 -11 5 2 25 19 30 26 28 17 -3z
m-273 8 c0 -5 -2 -10 -4 -10 -3 0 -8 5 -11 10 -3 6 -1 10 4 10 6 0 11 -4 11
-10z m557 -17 c-2 -15 -9 -29 -15 -31 -7 -2 -10 3 -7 12 3 9 7 23 10 31 7 25
16 17 12 -12z m633 5 c0 -19 -2 -20 -10 -8 -8 12 -10 10 -10 -9 0 -13 -3 -22
-6 -18 -9 9 5 57 16 57 6 0 10 -10 10 -22z m-278 -18 c3 -16 3 -30 2 -30 -9 0
-24 42 -19 50 10 16 12 12 17 -20z m386 -24 c-7 -25 -15 -46 -19 -46 -8 0 4
71 15 89 15 23 17 4 4 -43z m288 7 c-11 -11 -17 4 -9 23 7 18 8 18 11 1 2 -10
1 -21 -2 -24z m-641 17 c3 -5 1 -10 -4 -10 -6 0 -11 5 -11 10 0 6 2 10 4 10 3
0 8 -4 11 -10z m797 -12 c-7 -7 -12 -8 -12 -2 0 14 12 26 19 19 2 -3 -1 -11
-7 -17z m-1482 -19 c0 -4 -7 -9 -15 -13 -9 -3 -15 0 -15 8 0 7 7 13 15 13 8 0
15 -4 15 -8z m306 -15 c-4 -9 -9 -15 -11 -12 -3 3 -3 13 1 22 4 9 9 15 11 12
3 -3 3 -13 -1 -22z m264 -19 c0 -5 -5 -3 -10 5 -5 8 -10 20 -10 25 0 6 5 3 10
-5 5 -8 10 -19 10 -25z m27 13 c-3 -8 -6 -5 -6 6 -1 11 2 17 5 13 3 -3 4 -12
1 -19z m-537 3 c0 -5 -7 -14 -15 -21 -16 -14 -18 -10 -9 14 6 17 24 22 24 7z
m1316 -7 c-5 -14 -4 -15 9 -4 13 11 14 10 9 -4 -3 -9 -9 -16 -13 -17 -3 0 -16
-2 -28 -5 -26 -5 -28 -1 -11 26 16 24 43 27 34 4z m87 -24 c-3 -12 -8 -19 -11
-16 -5 6 5 36 12 36 2 0 2 -9 -1 -20z m77 10 c0 -5 -5 -10 -11 -10 -5 0 -7 5
-4 10 3 6 8 10 11 10 2 0 4 -4 4 -10z m-1425 -10 c3 -5 1 -10 -4 -10 -6 0 -11
5 -11 10 0 6 2 10 4 10 3 0 8 -4 11 -10z m958 -5 c-3 -9 -8 -14 -10 -11 -3 3
-2 9 2 15 9 16 15 13 8 -4z m-43 -5 c0 -5 -4 -10 -10 -10 -5 0 -10 5 -10 10 0
6 5 10 10 10 6 0 10 -4 10 -10z m-990 -10 c0 -5 -4 -10 -10 -10 -5 0 -10 5
-10 10 0 6 5 10 10 10 6 0 10 -4 10 -10z m-50 -4 c0 -3 -4 -8 -10 -11 -5 -3
-10 -1 -10 4 0 6 5 11 10 11 6 0 10 -2 10 -4z m1161 -39 c-8 -8 -11 -7 -11 4
0 20 13 34 18 19 3 -7 -1 -17 -7 -23z m-1191 -7 c0 -5 -5 -10 -11 -10 -5 0 -7
5 -4 10 3 6 8 10 11 10 2 0 4 -4 4 -10z m3423 -17 c-7 -2 -21 -2 -30 0 -10 3
-4 5 12 5 17 0 24 -2 18 -5z m-465 -38 c4 -4 -7 -5 -25 -2 -26 5 -31 3 -26 -8
4 -12 -4 -15 -38 -15 -83 0 -208 13 -204 21 3 4 -3 9 -12 11 -10 2 53 3 140 2
86 0 161 -5 165 -9z m176 4 c-6 -10 84 -18 161 -14 39 2 104 0 145 -4 56 -6
19 -8 -150 -9 -124 -1 -259 -4 -300 -7 -59 -5 -71 -4 -57 5 11 7 32 9 48 6 17
-3 28 -2 25 2 -3 5 23 7 57 5 l62 -2 -60 14 -60 13 67 -1 c36 -1 64 -5 62 -8z
m389 -6 c-7 -2 -21 -2 -30 0 -10 3 -4 5 12 5 17 0 24 -2 18 -5z m-1773 -23 c0
-5 -10 -10 -22 -9 -22 0 -22 1 -3 9 11 5 21 9 23 9 1 1 2 -3 2 -9z m1570 -30
c42 -9 -152 -1 -230 10 -34 5 -8 6 70 3 69 -3 141 -9 160 -13z m93 13 c-7 -2
-21 -2 -30 0 -10 3 -4 5 12 5 17 0 24 -2 18 -5z m-334 -19 c8 -8 -115 -3 -154
6 -27 6 -10 6 55 3 52 -3 97 -7 99 -9z m436 6 c8 -13 -5 -13 -25 0 -13 8 -13
10 2 10 9 0 20 -4 23 -10z m-72 -7 c3 -5 -11 -9 -31 -10 -27 -2 -33 0 -22 7
18 12 47 13 53 3z m-688 -19 c-27 -7 -54 -13 -60 -13 -17 2 69 27 90 27 11 0
-2 -6 -30 -14z m428 9 c-18 -2 -48 -2 -65 0 -18 2 -4 4 32 4 36 0 50 -2 33 -4z
m-84 -19 c7 -7 -101 -3 -154 6 -36 6 -22 7 50 3 55 -2 102 -7 104 -9z m422 4
c30 -1 1 -4 -65 -7 -133 -7 -236 -3 -236 8 0 7 92 6 301 -1z m-1744 -14 c-3
-3 -12 -4 -19 -1 -8 3 -5 6 6 6 11 1 17 -2 13 -5z m108 -4 c-3 -5 -22 -10 -41
-10 -19 0 -34 5 -34 10 0 6 18 10 41 10 24 0 38 -4 34 -10z m1042 4 c-3 -3
-12 -4 -19 -1 -8 3 -5 6 6 6 11 1 17 -2 13 -5z m231 -1 c-10 -2 -26 -2 -35 0
-10 3 -2 5 17 5 19 0 27 -2 18 -5z m-1053 -19 c66 -8 156 -17 200 -19 44 -2
136 -11 205 -20 69 -8 166 -20 215 -25 l90 -9 -114 5 c-63 3 -135 9 -160 14
-25 5 -50 5 -54 0 -5 -4 20 -12 55 -18 l63 -9 -110 -3 c-99 -3 -104 -4 -50
-10 l60 -7 -79 -1 c-69 -2 -77 0 -61 11 17 13 17 14 -5 20 -13 3 -28 3 -34 -1
-6 -3 -17 -7 -26 -7 -8 -1 -26 -5 -39 -9 -16 -6 -21 -5 -17 3 4 6 0 11 -8 11
-9 0 -16 -7 -16 -15 0 -17 -9 -19 -37 -8 -16 6 -15 8 7 14 16 5 -2 7 -48 7
-39 -1 -74 1 -77 4 -6 6 6 7 88 9 34 0 67 4 72 9 6 4 19 10 30 14 11 3 -2 3
-28 1 -27 -3 -46 -1 -43 4 7 11 -100 24 -252 30 -7 1 -10 6 -7 11 8 13 35 12
180 -6z m731 9 c-4 -4 -23 -7 -44 -6 -37 1 -37 1 8 -9 25 -6 40 -13 33 -15 -6
-2 -29 0 -50 6 -21 6 -54 12 -73 12 -33 2 -32 2 10 9 63 10 125 11 116 3z
m134 -3 c-8 -5 -26 -9 -40 -9 -23 1 -23 2 5 9 43 11 52 11 35 0z m435 -6 c-13
-10 -31 -13 -49 -10 -16 3 -54 7 -85 8 -42 1 -32 3 39 8 52 3 100 7 105 8 6 1
1 -6 -10 -14z m-240 -4 c-11 -5 -42 -8 -70 -8 l-50 1 55 7 c79 10 88 10 65 0z
m394 -6 c10 -9 -86 -3 -99 6 -10 7 2 8 40 4 30 -4 57 -8 59 -10z m-526 -1 c-7
-2 -21 -2 -30 0 -10 3 -4 5 12 5 17 0 24 -2 18 -5z m-1018 -13 c51 -2 62 -4
40 -9 -39 -9 -97 -7 -114 4 -11 6 -13 3 -9 -13 5 -17 1 -20 -22 -20 -25 1 -27
3 -14 15 20 21 17 25 -8 12 -21 -11 -22 -11 -10 4 8 9 24 14 40 12 15 -2 59
-4 97 -5z m930 0 c7 -12 -32 -12 -60 0 -16 7 -13 9 17 9 20 1 40 -3 43 -9z
m-170 -10 l30 -8 -30 0 c-16 0 -52 3 -80 8 l-50 7 50 0 c28 1 64 -3 80 -7z
m248 3 c-7 -2 -21 -2 -30 0 -10 3 -4 5 12 5 17 0 24 -2 18 -5z m385 0 c-10 -2
-26 -2 -35 0 -10 3 -2 5 17 5 19 0 27 -2 18 -5z m-1278 -13 c-8 -5 -31 -9 -50
-9 -32 1 -33 2 -10 9 14 4 36 8 50 9 20 1 22 -1 10 -9z m973 3 c-13 -2 -33 -2
-45 0 -13 2 -3 4 22 4 25 0 35 -2 23 -4z m-245 -10 c-10 -2 -26 -2 -35 0 -10
3 -2 5 17 5 19 0 27 -2 18 -5z m142 -10 c0 -2 -20 -3 -44 -2 -25 2 -43 5 -41
9 4 6 85 0 85 -7z m313 10 c-7 -2 -19 -2 -25 0 -7 3 -2 5 12 5 14 0 19 -2 13
-5z m270 0 c-7 -2 -21 -2 -30 0 -10 3 -4 5 12 5 17 0 24 -2 18 -5z m-530 -20
c-7 -2 -19 -2 -25 0 -7 3 -2 5 12 5 14 0 19 -2 13 -5z m290 0 c-7 -2 -21 -2
-30 0 -10 3 -4 5 12 5 17 0 24 -2 18 -5z m107 -12 c0 -4 -11 -6 -25 -3 -14 2
-25 6 -25 8 0 2 11 4 25 4 14 0 25 -4 25 -9z m-1470 -11 c0 -5 -2 -10 -4 -10
-3 0 -8 5 -11 10 -3 6 -1 10 4 10 6 0 11 -4 11 -10z m688 3 c-10 -2 -26 -2
-35 0 -10 3 -2 5 17 5 19 0 27 -2 18 -5z m219 1 c-3 -3 -12 -4 -19 -1 -8 3 -5
6 6 6 11 1 17 -2 13 -5z m676 -1 c-13 -2 -33 -2 -45 0 -13 2 -3 4 22 4 25 0
35 -2 23 -4z m-1456 -9 c-3 -3 -12 -4 -19 -1 -8 3 -5 6 6 6 11 1 17 -2 13 -5z
m188 -3 l-20 -8 20 -5 c16 -5 14 -6 -7 -7 -20 -1 -26 3 -22 14 4 8 16 15 28
14 20 0 20 -1 1 -8z m530 -1 c-3 -5 -25 -10 -48 -9 -36 1 -38 2 -17 9 36 12
72 12 65 0z m158 3 c-13 -2 -33 -2 -45 0 -13 2 -3 4 22 4 25 0 35 -2 23 -4z
m205 0 c-10 -2 -26 -2 -35 0 -10 3 -2 5 17 5 19 0 27 -2 18 -5z m152 -3 c-36
-12 -62 -12 -55 0 3 6 23 10 43 9 33 -1 34 -2 12 -9z m-1145 -10 c3 -6 -4 -10
-17 -10 -18 0 -20 2 -8 10 19 12 18 12 25 0z m888 3 c-13 -2 -33 -2 -45 0 -13
2 -3 4 22 4 25 0 35 -2 23 -4z m-290 -20 c-7 -2 -21 -2 -30 0 -10 3 -4 5 12 5
17 0 24 -2 18 -5z m167 3 c0 -6 -132 -28 -137 -22 -2 2 19 9 49 14 62 11 88
14 88 8z m243 -3 c-13 -2 -35 -2 -50 0 -16 2 -5 4 22 4 28 0 40 -2 28 -4z
m-1074 -7 c-10 -10 -59 -14 -59 -5 0 5 14 9 32 9 17 0 29 -2 27 -4z m58 -2
c-3 -3 -12 -4 -19 -1 -8 3 -5 6 6 6 11 1 17 -2 13 -5z m870 0 c-3 -3 -12 -4
-19 -1 -8 3 -5 6 6 6 11 1 17 -2 13 -5z m256 -1 c-7 -2 -21 -2 -30 0 -10 3 -4
5 12 5 17 0 24 -2 18 -5z m-755 -10 c-10 -2 -26 -2 -35 0 -10 3 -2 5 17 5 19
0 27 -2 18 -5z m-365 -10 c-7 -2 -21 -2 -30 0 -10 3 -4 5 12 5 17 0 24 -2 18
-5z m90 0 c-7 -2 -19 -2 -25 0 -7 3 -2 5 12 5 14 0 19 -2 13 -5z m97 -3 c-36
-11 -52 -11 -45 0 3 6 21 10 38 9 31 -1 31 -1 7 -9z m823 3 c-7 -2 -19 -2 -25
0 -7 3 -2 5 12 5 14 0 19 -2 13 -5z m314 -9 c-3 -3 -12 -4 -19 -1 -8 3 -5 6 6
6 11 1 17 -2 13 -5z m-1230 -10 c-3 -3 -12 -4 -19 -1 -8 3 -5 6 6 6 11 1 17
-2 13 -5z m143 -5 c-25 -4 -58 -7 -75 -7 l-30 0 30 8 c17 4 50 8 75 8 l45 -1
-45 -8z m567 5 c-3 -3 -12 -4 -19 -1 -8 3 -5 6 6 6 11 1 17 -2 13 -5z m-812
-14 c-3 -5 -13 -10 -21 -10 -8 0 -14 5 -14 10 0 6 9 10 21 10 11 0 17 -4 14
-10z m360 -1 c-22 -4 -49 -8 -60 -8 l-20 0 20 9 c11 5 38 8 60 8 l40 0 -40 -9z
m-318 -15 c-3 -3 -12 -4 -19 -1 -8 3 -5 6 6 6 11 1 17 -2 13 -5z m451 -1 c-10
-2 -26 -2 -35 0 -10 3 -2 5 17 5 19 0 27 -2 18 -5z m-348 -13 c-14 -4 -52 -8
-85 -7 l-60 0 50 7 c28 4 66 7 85 7 31 1 32 0 10 -7z m-145 -40 c-3 -5 -13
-10 -21 -10 -8 0 -14 5 -14 10 0 6 9 10 21 10 11 0 17 -4 14 -10z m68 -47
c-13 -2 -33 -2 -45 0 -13 2 -3 4 22 4 25 0 35 -2 23 -4z m1035 0 c-10 -2 -28
-2 -40 0 -13 2 -5 4 17 4 22 1 32 -1 23 -4z m-860 -50 c-16 -2 -40 -2 -55 0
-16 2 -3 4 27 4 30 0 43 -2 28 -4z"></path>
<path d="M6178 563 c7 -3 16 -2 19 1 4 3 -2 6 -13 5 -11 0 -14 -3 -6 -6z"></path>
<path d="M5665 410 c31 -8 172 -13 164 -6 -3 3 -47 7 -99 10 -58 3 -83 1 -65
-4z"></path>
<path d="M5590 396 c0 -10 28 -13 41 -5 10 6 7 9 -13 9 -16 0 -28 -2 -28 -4z"></path>
<path d="M3998 2193 c7 -3 16 -2 19 1 4 3 -2 6 -13 5 -11 0 -14 -3 -6 -6z"></path>
<path d="M6300 2170 c0 -4 11 -10 25 -12 14 -3 25 -2 25 2 0 4 -11 10 -25 12
-14 3 -25 2 -25 -2z"></path>
<path d="M6896 2165 c5 -12 -4 -15 -44 -15 -28 0 -54 5 -57 10 -8 12 -59 8
-97 -8 -15 -6 -35 -9 -45 -5 -9 4 -14 2 -11 -3 8 -13 -28 -48 -37 -35 -3 6
-21 11 -38 12 -18 0 -26 3 -19 6 6 2 12 11 12 20 0 10 -6 12 -20 8 -12 -4 -27
-2 -35 5 -9 7 -15 8 -20 0 -8 -13 -92 -13 -100 0 -11 17 -24 11 -20 -10 2 -13
-2 -20 -11 -20 -8 0 -14 5 -14 11 0 7 -15 10 -40 7 -22 -2 -40 0 -40 4 0 16
-17 7 -28 -14 -6 -13 -11 -17 -11 -10 -1 6 -8 12 -17 12 -8 0 -13 -4 -10 -8 3
-5 -10 -14 -29 -20 -20 -6 -35 -6 -35 -1 0 5 -30 9 -66 9 -41 0 -63 -4 -59
-10 3 -5 23 -10 44 -10 22 0 44 -6 51 -15 7 -8 22 -15 34 -16 14 -1 10 -4 -13
-11 -37 -10 -61 -5 -61 14 0 10 2 10 9 -1 5 -8 11 -9 15 -3 3 6 0 12 -6 15
-21 6 -48 -4 -48 -19 0 -15 -36 -20 -42 -5 -4 10 -107 21 -113 12 -2 -4 10 -8
28 -9 52 -4 44 -12 -12 -12 -30 0 -50 -4 -46 -9 3 -6 -12 -11 -32 -13 -21 -2
10 -4 69 -3 60 0 108 2 108 5 0 3 21 4 46 2 85 -7 52 -13 -158 -27 -54 -4 -98
-11 -98 -16 0 -5 6 -9 13 -9 8 0 7 -4 -3 -10 -11 -7 -6 -10 22 -10 20 0 44 7
53 16 16 16 105 28 138 18 34 -11 16 -24 -34 -24 -29 0 -48 -4 -44 -9 3 -6 -2
-14 -11 -19 -33 -18 -5 -32 52 -26 37 5 54 3 54 -5 0 -6 6 -11 14 -11 16 0 31
-18 23 -26 -7 -7 -57 18 -52 26 2 3 -9 4 -25 2 -17 -2 -27 -8 -24 -13 5 -9
-15 -13 -48 -11 -10 1 -18 -3 -18 -8 0 -6 28 -10 63 -10 44 0 58 3 47 10 -8 5
-10 10 -5 10 6 0 16 -5 23 -12 6 -6 38 -11 71 -11 36 0 58 -4 54 -10 -3 -6
-37 -7 -81 -4 -55 4 -72 3 -64 -5 7 -7 38 -12 69 -13 87 -3 95 -4 89 -14 -4
-5 -35 -8 -70 -8 -51 2 -62 -1 -54 -10 13 -16 48 -17 48 -3 0 7 6 7 19 0 11
-5 28 -7 38 -4 17 5 17 5 0 -9 -15 -13 -11 -15 41 -20 33 -2 71 -3 86 0 25 5
25 6 9 19 -16 12 -14 13 20 14 23 0 36 -4 32 -10 -4 -6 16 -11 52 -11 32 -1
46 -4 31 -6 -16 -2 -28 -8 -28 -13 0 -5 -6 -7 -12 -5 -7 3 -47 1 -88 -4 l-75
-8 80 -3 80 -3 -60 -7 c-59 -7 -63 -10 -17 -15 12 -1 26 -6 30 -10 4 -5 0 -6
-10 -2 -9 3 -19 3 -23 -1 -3 -3 -23 -5 -43 -4 -28 2 -33 0 -22 -7 17 -12 139
-4 155 10 5 5 -1 9 -15 9 -13 0 -21 3 -17 6 3 3 42 6 87 5 45 -1 79 3 76 7 -3
5 6 7 19 4 32 -6 32 -22 0 -22 -14 0 -25 -4 -25 -10 0 -11 19 -14 63 -11 30 2
37 -15 10 -22 -10 -3 -1 -5 20 -6 20 0 37 3 37 8 0 5 14 8 30 6 18 -3 28 0 25
5 -4 6 10 10 31 10 30 0 35 -3 26 -12 -25 -25 -13 -38 36 -37 33 2 38 3 17 6
-31 5 -60 23 -36 23 7 0 9 5 6 10 -4 6 7 10 26 10 31 0 32 -1 13 -15 -18 -13
-17 -14 19 -15 20 0 37 -4 37 -10 0 -5 27 -9 61 -9 33 1 63 -2 66 -5 7 -7 -58
-9 -177 -6 -57 1 -82 -1 -75 -8 6 -6 63 -12 129 -14 65 -2 110 -1 100 3 -15 6
-14 8 9 8 33 1 37 28 5 34 l-23 4 23 2 c35 2 30 41 -5 41 -22 0 -25 -2 -13
-10 11 -8 5 -10 -22 -8 -21 1 -38 5 -38 9 0 15 -114 21 -179 11 -52 -8 -77 -8
-116 3 l-50 14 42 0 c23 1 43 -3 45 -8 2 -6 52 -3 121 7 93 13 122 14 137 4
11 -7 38 -12 60 -12 l40 0 0 215 0 215 -37 1 c-32 1 -34 2 -13 8 14 3 26 12
28 20 3 12 1 12 -14 0 -13 -10 -18 -11 -21 -2 -2 7 -11 9 -19 6 -8 -3 -14 0
-14 6 0 6 -4 11 -10 11 -5 0 -7 -7 -4 -15z m-58 -31 c37 2 57 2 44 -1 -13 -2
-20 -9 -16 -16 5 -9 4 -9 -5 -1 -8 7 -25 9 -44 5 -18 -4 -52 -1 -77 5 -34 10
-39 13 -18 13 15 1 30 7 35 14 5 9 8 7 11 -6 3 -15 12 -17 70 -13z m-485 -21
c-7 -2 -21 -2 -30 0 -10 3 -4 5 12 5 17 0 24 -2 18 -5z m562 -33 c-3 -5 -15
-10 -26 -10 -11 0 -17 5 -14 10 3 6 15 10 26 10 11 0 17 -4 14 -10z m-407 -37
c-10 -2 -26 -2 -35 0 -10 3 -2 5 17 5 19 0 27 -2 18 -5z m-648 -57 c0 -2 -9
-6 -20 -9 -11 -3 -18 -1 -14 4 5 9 34 13 34 5z m217 -2 c-3 -3 -12 -4 -19 -1
-8 3 -5 6 6 6 11 1 17 -2 13 -5z m576 -11 c-7 -2 -19 -2 -25 0 -7 3 -2 5 12 5
14 0 19 -2 13 -5z m184 -9 c-3 -3 -12 -4 -19 -1 -8 3 -5 6 6 6 11 1 17 -2 13
-5z m-787 -19 c-14 -16 -75 -21 -85 -6 -5 9 22 16 74 20 20 1 22 -1 11 -14z
m573 8 c-7 -2 -19 -2 -25 0 -7 3 -2 5 12 5 14 0 19 -2 13 -5z m320 0 c-7 -2
-21 -2 -30 0 -10 3 -4 5 12 5 17 0 24 -2 18 -5z m-753 -39 c0 -2 -7 -4 -15 -4
-8 0 -15 4 -15 10 0 5 7 7 15 4 8 -4 15 -8 15 -10z m300 -3 c0 -9 -119 -26
-127 -18 -2 3 19 10 49 15 72 13 78 13 78 3z m207 3 c-3 -3 -12 -4 -19 -1 -8
3 -5 6 6 6 11 1 17 -2 13 -5z m-119 -11 c-10 -2 -26 -2 -35 0 -10 3 -2 5 17 5
19 0 27 -2 18 -5z m-333 -23 c23 0 27 -2 15 -10 -22 -14 -54 -12 -86 6 l-29
16 35 -7 c19 -3 49 -5 65 -5z m122 -6 c-3 -3 -12 -4 -19 -1 -8 3 -5 6 6 6 11
1 17 -2 13 -5z m530 -20 c-3 -3 -12 -4 -19 -1 -8 3 -5 6 6 6 11 1 17 -2 13 -5z
m-384 -11 c-13 -2 -33 -2 -45 0 -13 2 -3 4 22 4 25 0 35 -2 23 -4z m-326 -9
c-3 -3 -12 -4 -19 -1 -8 3 -5 6 6 6 11 1 17 -2 13 -5z m395 -1 c-13 -3 -19 -9
-16 -15 5 -8 1 -9 -10 -5 -10 4 -21 7 -24 8 -16 1 35 18 53 17 17 -1 16 -1 -3
-5z m-157 -13 c-3 -5 -27 -9 -53 -9 -46 2 -46 2 -12 9 53 11 72 11 65 0z m218
-17 c-13 -2 -33 -2 -45 0 -13 2 -3 4 22 4 25 0 35 -2 23 -4z m87 -3 c0 -5 14
-10 30 -10 17 0 30 -4 30 -9 0 -5 -17 -9 -37 -8 -21 0 -90 -3 -153 -6 -122 -7
-163 -2 -139 15 10 7 8 8 -9 5 -12 -3 -20 -1 -16 4 3 5 19 9 35 9 17 0 28 -4
25 -9 -3 -5 44 -9 104 -10 92 -1 110 1 110 14 0 8 5 15 10 15 6 0 10 -4 10
-10z m98 3 c-10 -2 -28 -2 -40 0 -13 2 -5 4 17 4 22 1 32 -1 23 -4z m6 -52 c8
-12 -18 -21 -57 -20 -18 0 -26 3 -18 6 11 5 11 7 0 14 -9 6 0 9 28 9 23 0 44
-4 47 -9z m124 2 c-21 -2 -38 -8 -38 -14 0 -5 -5 -9 -11 -9 -5 0 -8 4 -4 9 3
5 -9 12 -27 14 -18 2 1 4 42 4 41 0 58 -2 38 -4z m-480 -10 c-10 -2 -26 -2
-35 0 -10 3 -2 5 17 5 19 0 27 -2 18 -5z m59 1 c-3 -3 -12 -4 -19 -1 -8 3 -5
6 6 6 11 1 17 -2 13 -5z m66 -1 c-7 -2 -21 -2 -30 0 -10 3 -4 5 12 5 17 0 24
-2 18 -5z m15 -20 c-10 -2 -26 -2 -35 0 -10 3 -2 5 17 5 19 0 27 -2 18 -5z
m95 0 c-13 -2 -33 -2 -45 0 -13 2 -3 4 22 4 25 0 35 -2 23 -4z"></path>
<path d="M6991 2154 c0 -11 3 -14 6 -6 3 7 2 16 -1 19 -3 4 -6 -2 -5 -13z"></path>
<path d="M3444 2141 c5 -8 56 -3 56 5 0 2 -14 4 -31 4 -16 0 -28 -4 -25 -9z"></path>
<path d="M5990 2140 c0 -5 5 -10 10 -10 6 0 10 5 10 10 0 6 -4 10 -10 10 -5 0
-10 -4 -10 -10z"></path>
<path d="M6570 2141 c0 -9 41 -23 48 -16 2 2 1 8 -3 14 -8 13 -45 15 -45 2z"></path>
<path d="M6143 2133 c9 -2 23 -2 30 0 6 3 -1 5 -18 5 -16 0 -22 -2 -12 -5z"></path>
<path d="M3343 2115 c0 -8 9 -15 19 -15 17 0 18 2 4 15 -8 8 -16 15 -19 15 -2
0 -4 -7 -4 -15z"></path>
<path d="M4945 2120 c-16 -7 -14 -8 12 -7 17 1 29 5 26 10 -5 9 -12 8 -38 -3z"></path>
<path d="M5525 2110 c-4 -6 7 -10 27 -10 25 0 29 3 18 10 -19 13 -37 13 -45 0z"></path>
<path d="M5690 2110 c0 -5 7 -10 15 -10 8 0 15 5 15 10 0 6 -7 10 -15 10 -8 0
-15 -4 -15 -10z"></path>
<path d="M5875 2110 c4 -6 11 -8 16 -5 5 4 9 -1 9 -10 0 -12 5 -15 16 -11 9 3
20 6 25 6 4 0 6 7 3 15 -4 9 -19 15 -41 15 -20 0 -32 -4 -28 -10z"></path>
<path d="M4823 2093 c9 -2 23 -2 30 0 6 3 -1 5 -18 5 -16 0 -22 -2 -12 -5z"></path>
<path d="M5478 2093 c7 -3 16 -2 19 1 4 3 -2 6 -13 5 -11 0 -14 -3 -6 -6z"></path>
<path d="M5777 2088 c7 -12 73 -9 73 2 0 6 -17 9 -39 8 -21 -2 -37 -6 -34 -10z"></path>
<path d="M5420 2070 c0 -6 7 -10 15 -10 8 0 15 2 15 4 0 2 -7 6 -15 10 -8 3
-15 1 -15 -4z"></path>
<path d="M5500 2072 c0 -4 18 -6 40 -4 22 2 40 6 40 8 0 2 -18 4 -40 4 -22 0
-40 -3 -40 -8z"></path>
<path d="M5725 2070 c11 -5 29 -8 40 -8 16 0 15 2 -5 8 -34 11 -60 11 -35 0z"></path>
<path d="M5598 2063 c6 -2 18 -2 25 0 6 3 1 5 -13 5 -14 0 -19 -2 -12 -5z"></path>
<path d="M5647 2063 c-14 -14 -6 -20 19 -15 19 3 22 7 12 13 -16 11 -23 11
-31 2z"></path>
<path d="M5555 2040 c3 -5 0 -10 -7 -10 -9 0 -8 -4 2 -14 9 -9 42 -16 78 -19
68 -4 70 1 8 22 -32 11 -40 11 -47 0 -6 -10 -9 -8 -9 9 0 13 -6 22 -16 22 -8
0 -12 -4 -9 -10z"></path>
<path d="M5704 2040 c-5 -5 -20 -10 -34 -13 -16 -3 -10 -5 17 -6 23 0 44 3 47
8 8 12 -19 22 -30 11z"></path>
<path d="M5348 2033 c6 -2 18 -2 25 0 6 3 1 5 -13 5 -14 0 -19 -2 -12 -5z"></path>
<path d="M5410 2020 c0 -5 11 -10 25 -10 14 0 25 5 25 10 0 6 -11 10 -25 10
-14 0 -25 -4 -25 -10z"></path>
<path d="M5460 2000 c-9 -6 -10 -10 -3 -10 6 0 15 5 18 10 8 12 4 12 -15 0z"></path>
<path d="M5565 1980 c4 -6 11 -8 16 -5 14 9 11 15 -7 15 -8 0 -12 -5 -9 -10z"></path>
<path d="M2630 1920 c0 -5 5 -10 11 -10 5 0 7 5 4 10 -3 6 -8 10 -11 10 -2 0
-4 -4 -4 -10z"></path>
<path d="M3005 1922 c8 -9 125 -10 125 -1 0 3 -30 6 -66 7 -37 1 -63 -2 -59
-6z"></path>
<path d="M2660 1908 c0 -4 9 -8 20 -8 11 0 20 4 20 8 0 4 -9 8 -20 8 -11 0
-20 -4 -20 -8z"></path>
<path d="M5761 1916 c2 -2 33 -6 69 -10 44 -4 60 -3 50 4 -14 9 -129 15 -119
6z"></path>
<path d="M3038 1893 c7 -3 16 -2 19 1 4 3 -2 6 -13 5 -11 0 -14 -3 -6 -6z"></path>
<path d="M1878 1753 c7 -3 16 -2 19 1 4 3 -2 6 -13 5 -11 0 -14 -3 -6 -6z"></path>
<path d="M1940 1750 c0 -5 5 -10 11 -10 5 0 7 5 4 10 -3 6 -8 10 -11 10 -2 0
-4 -4 -4 -10z"></path>
<path d="M6071 1734 c-12 -14 -8 -15 35 -10 63 6 64 6 34 16 -38 12 -54 11
-69 -6z"></path>
<path d="M1418 1713 c6 -2 18 -2 25 0 6 3 1 5 -13 5 -14 0 -19 -2 -12 -5z"></path>
<path d="M6177 1703 c-9 -2 -15 -9 -12 -14 9 -14 32 -11 39 6 6 15 4 16 -27 8z"></path>
<path d="M1408 1693 c7 -3 16 -2 19 1 4 3 -2 6 -13 5 -11 0 -14 -3 -6 -6z"></path>
<path d="M1759 1683 c-13 -17 -13 -17 4 -4 16 13 20 13 29 0 8 -12 9 -12 6 0
-6 22 -23 24 -39 4z"></path>
<path d="M6400 1694 c8 -3 22 -8 30 -11 12 -4 11 -7 -5 -13 l-20 -9 20 0 c24
0 71 24 59 31 -5 3 -29 5 -54 6 -25 0 -38 -1 -30 -4z"></path>
<path d="M1547 1675 c-5 -11 0 -15 16 -15 12 0 18 4 12 8 -5 4 -13 11 -16 15
-4 4 -9 1 -12 -8z"></path>
<path d="M1498 1663 c6 -2 18 -2 25 0 6 3 1 5 -13 5 -14 0 -19 -2 -12 -5z"></path>
<path d="M6143 1653 c9 -2 23 -2 30 0 6 3 -1 5 -18 5 -16 0 -22 -2 -12 -5z"></path>
<path d="M6273 1653 c30 -3 37 -8 33 -20 -5 -11 -2 -14 10 -9 8 3 20 6 25 6 6
0 7 5 4 10 -4 6 -10 8 -15 5 -5 -3 -11 -1 -15 5 -3 5 -23 9 -43 8 l-37 -1 38
-4z"></path>
<path d="M6425 1652 c-46 -3 -83 -17 -53 -20 108 -11 113 -11 78 -2 -28 7 -22
8 33 6 37 -2 67 0 67 4 0 10 -61 16 -125 12z"></path>
<path d="M6612 1640 c-44 -10 -56 -25 -13 -16 18 3 51 6 73 6 24 0 37 4 33 10
-7 11 -45 12 -93 0z"></path>
<path d="M6591 1600 c10 -6 34 -6 60 -1 l44 9 -60 1 c-42 0 -55 -2 -44 -9z"></path>
<path d="M6308 1593 c7 -3 16 -2 19 1 4 3 -2 6 -13 5 -11 0 -14 -3 -6 -6z"></path>
<path d="M6468 1593 c7 -3 16 -2 19 1 4 3 -2 6 -13 5 -11 0 -14 -3 -6 -6z"></path>
<path d="M6628 1573 c7 -3 16 -2 19 1 4 3 -2 6 -13 5 -11 0 -14 -3 -6 -6z"></path>
<path d="M6900 1570 c-18 -11 21 -30 57 -29 26 2 25 2 -7 9 l-35 7 37 2 c21 0
38 -4 41 -11 3 -7 6 -4 6 7 1 17 -6 20 -43 21 -24 1 -50 -2 -56 -6z"></path>
<path d="M6830 1560 l-35 -6 33 -5 c18 -3 35 -2 38 3 9 13 3 15 -36 8z"></path>
<path d="M6968 1513 c6 -2 18 -2 25 0 6 3 1 5 -13 5 -14 0 -19 -2 -12 -5z"></path>
<path d="M6668 1463 c6 -2 18 -2 25 0 6 3 1 5 -13 5 -14 0 -19 -2 -12 -5z"></path>
<path d="M6933 1403 c9 -2 23 -2 30 0 6 3 -1 5 -18 5 -16 0 -22 -2 -12 -5z"></path>
<path d="M6918 1373 c7 -3 16 -2 19 1 4 3 -2 6 -13 5 -11 0 -14 -3 -6 -6z"></path>
<path d="M6978 1363 c7 -3 16 -2 19 1 4 3 -2 6 -13 5 -11 0 -14 -3 -6 -6z"></path>
<path d="M6698 1353 c12 -2 32 -2 45 0 12 2 2 4 -23 4 -25 0 -35 -2 -22 -4z"></path>
<path d="M6978 1303 c7 -3 16 -2 19 1 4 3 -2 6 -13 5 -11 0 -14 -3 -6 -6z"></path>
<path d="M6985 1250 c3 -5 8 -10 11 -10 2 0 4 5 4 10 0 6 -5 10 -11 10 -5 0
-7 -4 -4 -10z"></path>
<path d="M6928 1243 c7 -3 16 -2 19 1 4 3 -2 6 -13 5 -11 0 -14 -3 -6 -6z"></path>
<path d="M6308 1233 c7 -3 16 -2 19 1 4 3 -2 6 -13 5 -11 0 -14 -3 -6 -6z"></path>
<path d="M6673 1233 c9 -2 25 -2 35 0 9 3 1 5 -18 5 -19 0 -27 -2 -17 -5z"></path>
<path d="M6498 1223 c7 -3 16 -2 19 1 4 3 -2 6 -13 5 -11 0 -14 -3 -6 -6z"></path>
<path d="M2701 1216 c9 -10 59 -14 54 -5 -4 5 -18 9 -32 9 -15 0 -24 -2 -22
-4z"></path>
<path d="M6900 1194 c36 -8 100 -9 100 -2 0 5 -26 7 -57 7 -32 -1 -51 -3 -43
-5z"></path>
<path d="M2650 1102 c0 -17 4 -34 10 -37 6 -4 7 6 3 27 -8 44 -13 48 -13 10z"></path>
<path d="M6345 1120 c27 -12 35 -12 35 0 0 6 -12 10 -27 9 -25 0 -26 -1 -8 -9z"></path>
<path d="M6982 1121 c-11 -7 -11 -9 2 -14 10 -4 16 -1 16 8 0 17 -1 17 -18 6z"></path>
<path d="M6390 1113 c0 -10 80 -20 225 -28 61 -3 71 -2 40 4 -108 24 -265 37
-265 24z"></path>
<path d="M6738 1113 c6 -2 18 -2 25 0 6 3 1 5 -13 5 -14 0 -19 -2 -12 -5z"></path>
<path d="M6883 1083 c15 -2 37 -2 50 0 12 2 0 4 -28 4 -27 0 -38 -2 -22 -4z"></path>
<path d="M3202 1050 c0 -14 2 -19 5 -12 2 6 2 18 0 25 -3 6 -5 1 -5 -13z"></path>
<path d="M3253 1040 c-3 -11 -9 -20 -14 -20 -5 0 -9 -5 -9 -11 0 -18 27 8 33
31 3 11 3 20 0 20 -3 0 -7 -9 -10 -20z"></path>
<path d="M2527 1033 c3 -7 9 -10 14 -7 14 8 11 21 -5 21 -8 0 -12 -6 -9 -14z"></path>
<path d="M6788 1043 c7 -3 16 -2 19 1 4 3 -2 6 -13 5 -11 0 -14 -3 -6 -6z"></path>
<path d="M4110 1028 c0 -9 5 -20 10 -23 13 -8 13 5 0 25 -8 13 -10 13 -10 -2z"></path>
<path d="M2686 1015 c-3 -8 -1 -15 4 -15 6 0 10 7 10 15 0 8 -2 15 -4 15 -2 0
-6 -7 -10 -15z"></path>
<path d="M2904 1002 c-1 -9 -4 -24 -7 -32 -8 -18 9 -48 20 -36 4 5 3 11 -4 13
-9 3 -9 12 -2 30 5 15 6 30 2 34 -5 5 -9 1 -9 -9z"></path>
<path d="M3806 1007 c3 -10 9 -15 12 -12 3 3 0 11 -7 18 -10 9 -11 8 -5 -6z"></path>
<path d="M4170 981 c0 -5 5 -13 10 -16 6 -3 10 -2 10 4 0 5 -4 13 -10 16 -5 3
-10 2 -10 -4z"></path>
<path d="M6678 977 c24 -7 36 -7 44 1 9 9 1 12 -32 11 l-45 -1 33 -11z"></path>
<path d="M3050 970 c0 -5 4 -10 10 -10 5 0 7 -8 3 -17 -4 -14 -3 -15 6 -7 6 6
9 18 5 27 -7 18 -24 23 -24 7z"></path>
<path d="M2746 953 c-6 -14 -5 -15 5 -6 7 7 10 15 7 18 -3 3 -9 -2 -12 -12z"></path>
<path d="M2820 955 c0 -8 4 -15 10 -15 5 0 7 7 4 15 -4 8 -8 15 -10 15 -2 0
-4 -7 -4 -15z"></path>
<path d="M4200 949 c0 -5 5 -7 10 -4 6 3 10 8 10 11 0 2 -4 4 -10 4 -5 0 -10
-5 -10 -11z"></path>
<path d="M3421 922 c-12 -18 -26 -30 -31 -27 -5 3 -12 0 -16 -6 -4 -8 -3 -9 4
-5 7 4 12 2 12 -5 0 -7 14 1 31 19 17 17 29 37 27 43 -2 7 -14 -2 -27 -19z"></path>
<path d="M4520 925 c-13 -14 -19 -25 -14 -25 8 1 50 50 41 50 -2 0 -14 -11
-27 -25z"></path>
<path d="M4425 921 c-16 -19 -16 -20 2 -18 11 0 19 8 19 19 0 22 1 22 -21 -1z"></path>
<path d="M3531 914 c0 -11 3 -14 6 -6 3 7 2 16 -1 19 -3 4 -6 -2 -5 -13z"></path>
<path d="M3161 904 c0 -11 3 -14 6 -6 3 7 2 16 -1 19 -3 4 -6 -2 -5 -13z"></path>
<path d="M3736 904 c-8 -20 -8 -24 2 -24 4 0 8 9 9 20 2 24 -3 26 -11 4z"></path>
<path d="M4202 900 c0 -14 2 -19 5 -12 2 6 2 18 0 25 -3 6 -5 1 -5 -13z"></path>
<path d="M6288 863 c7 -3 16 -2 19 1 4 3 -2 6 -13 5 -11 0 -14 -3 -6 -6z"></path>
<path d="M2525 850 c-3 -5 -5 -10 -3 -11 33 -8 38 -7 27 7 -14 17 -16 17 -24
4z"></path>
<path d="M3975 849 c-4 -6 -5 -12 -2 -15 2 -3 7 2 10 11 7 17 1 20 -8 4z"></path>
<path d="M6963 853 c9 -2 23 -2 30 0 6 3 -1 5 -18 5 -16 0 -22 -2 -12 -5z"></path>
<path d="M3559 833 c-1 -10 -3 -28 -4 -41 -1 -12 0 -20 3 -17 7 7 14 75 7 75
-3 0 -6 -8 -6 -17z"></path>
<path d="M4530 844 c0 -6 -14 -17 -30 -24 -17 -7 -29 -15 -26 -17 2 -3 13 0
24 6 11 6 22 7 24 2 2 -5 8 -3 15 4 7 7 8 17 2 26 -5 8 -9 9 -9 3z"></path>
<path d="M6790 830 c8 -5 26 -10 39 -10 32 0 24 6 -19 14 -25 4 -31 3 -20 -4z"></path>
<path d="M6914 832 c4 -7 23 -12 42 -12 19 0 34 -5 34 -11 0 -9 -21 -10 -72
-6 -45 4 -65 3 -53 -3 11 -5 46 -9 78 -9 51 -1 57 1 57 19 0 14 -7 20 -22 20
-13 0 -34 3 -47 7 -17 4 -22 3 -17 -5z"></path>
<path d="M5943 823 c9 -2 23 -2 30 0 6 3 -1 5 -18 5 -16 0 -22 -2 -12 -5z"></path>
<path d="M6643 823 c9 -2 25 -2 35 0 9 3 1 5 -18 5 -19 0 -27 -2 -17 -5z"></path>
<path d="M6035 810 c27 -12 43 -12 25 0 -8 5 -22 9 -30 9 -10 0 -8 -3 5 -9z"></path>
<path d="M6478 798 c23 -8 39 -8 55 0 19 9 13 11 -33 10 -53 0 -54 -1 -22 -10z"></path>
<path d="M6663 803 c9 -2 23 -2 30 0 6 3 -1 5 -18 5 -16 0 -22 -2 -12 -5z"></path>
<path d="M6741 806 c2 -2 18 -6 34 -10 22 -5 26 -4 15 4 -14 9 -59 15 -49 6z"></path>
<path d="M4476 775 c-3 -8 -1 -15 4 -15 6 0 10 7 10 15 0 8 -2 15 -4 15 -2 0
-6 -7 -10 -15z"></path>
<path d="M6228 773 c17 -2 47 -2 65 0 17 2 3 4 -33 4 -36 0 -50 -2 -32 -4z"></path>
<path d="M6465 770 c-35 -6 -31 -7 30 -8 48 -1 65 1 55 8 -16 11 -26 11 -85 0z"></path>
<path d="M6685 770 c124 -9 230 -12 223 -5 -3 3 -77 7 -164 9 -135 3 -144 3
-59 -4z"></path>
<path d="M6953 763 c9 -2 25 -2 35 0 9 3 1 5 -18 5 -19 0 -27 -2 -17 -5z"></path>
<path d="M5778 743 c23 -2 59 -2 80 0 20 2 1 4 -43 4 -44 0 -61 -2 -37 -4z"></path>
<path d="M5918 743 c7 -3 16 -2 19 1 4 3 -2 6 -13 5 -11 0 -14 -3 -6 -6z"></path>
<path d="M6093 743 c54 -2 139 -2 190 0 51 1 7 3 -98 3 -104 0 -146 -2 -92 -3z"></path>
<path d="M6391 745 c8 -7 129 -9 136 -2 3 4 -27 7 -67 7 -40 0 -71 -2 -69 -5z"></path>
<path d="M4605 731 c-3 -5 -1 -12 5 -16 5 -3 10 1 10 9 0 18 -6 21 -15 7z"></path>
<path d="M6560 734 c37 -8 88 -9 84 -2 -3 4 -26 7 -52 7 -26 -1 -40 -3 -32 -5z"></path>
<path d="M6828 733 c34 -2 88 -2 120 0 31 2 3 3 -63 3 -66 0 -92 -1 -57 -3z"></path>
<path d="M5640 721 c96 -15 187 -21 162 -11 -12 5 -66 12 -120 14 -76 4 -85 3
-42 -3z"></path>
<path d="M5893 723 c32 -2 81 -2 110 0 29 2 3 3 -58 3 -60 0 -84 -1 -52 -3z"></path>
<path d="M6678 723 c12 -2 30 -2 40 0 9 3 -1 5 -23 4 -22 0 -30 -2 -17 -4z"></path>
<path d="M5150 716 c0 -9 30 -14 35 -6 4 6 -3 10 -14 10 -12 0 -21 -2 -21 -4z"></path>
<path d="M6133 713 c9 -2 25 -2 35 0 9 3 1 5 -18 5 -19 0 -27 -2 -17 -5z"></path>
<path d="M6426 710 c29 -4 57 -10 62 -14 6 -3 13 -2 16 3 7 11 -43 21 -93 20
-31 -1 -29 -3 15 -9z"></path>
<path d="M6815 710 c22 -4 74 -10 115 -13 l75 -6 -85 14 c-94 15 -177 19 -105
5z"></path>
<path d="M5088 703 c7 -3 16 -2 19 1 4 3 -2 6 -13 5 -11 0 -14 -3 -6 -6z"></path>
<path d="M5120 700 c0 -5 -9 -10 -20 -10 -11 0 -20 -4 -20 -9 0 -5 11 -8 24
-7 13 0 22 5 18 10 -3 5 5 7 16 4 27 -8 28 -2 2 12 -14 7 -20 7 -20 0z"></path>
<path d="M5348 703 c12 -2 32 -2 45 0 12 2 2 4 -23 4 -25 0 -35 -2 -22 -4z"></path>
<path d="M5500 701 c0 -4 11 -6 25 -3 14 2 25 6 25 8 0 2 -11 4 -25 4 -14 0
-25 -4 -25 -9z"></path>
<path d="M5568 703 c7 -3 16 -2 19 1 4 3 -2 6 -13 5 -11 0 -14 -3 -6 -6z"></path>
<path d="M6298 703 c12 -2 32 -2 45 0 12 2 2 4 -23 4 -25 0 -35 -2 -22 -4z"></path>
<path d="M6640 700 c30 -5 78 -8 105 -8 l50 1 -55 7 c-30 5 -77 8 -105 8 l-50
-1 55 -7z"></path>
<path d="M5453 693 c9 -2 23 -2 30 0 6 3 -1 5 -18 5 -16 0 -22 -2 -12 -5z"></path>
<path d="M5638 693 c12 -2 32 -2 45 0 12 2 2 4 -23 4 -25 0 -35 -2 -22 -4z"></path>
<path d="M5898 693 c18 -2 45 -2 60 0 15 2 0 4 -33 4 -33 0 -45 -2 -27 -4z"></path>
<path d="M6155 690 c30 -8 192 -13 184 -6 -2 2 -51 6 -109 9 -59 3 -92 2 -75
-3z"></path>
<path d="M5773 683 c9 -2 25 -2 35 0 9 3 1 5 -18 5 -19 0 -27 -2 -17 -5z"></path>
<path d="M6058 683 c6 -2 18 -2 25 0 6 3 1 5 -13 5 -14 0 -19 -2 -12 -5z"></path>
<path d="M6370 681 c-27 -8 59 -17 255 -25 135 -6 111 1 -50 14 -66 5 -133 12
-150 14 -16 3 -41 1 -55 -3z"></path>
<path d="M6568 683 c17 -2 47 -2 65 0 17 2 3 4 -33 4 -36 0 -50 -2 -32 -4z"></path>
<path d="M6835 680 c46 -16 114 -21 133 -10 13 7 3 9 -39 10 -31 0 -72 2 -90
5 l-34 5 30 -10z"></path>
<path d="M5323 673 c9 -2 25 -2 35 0 9 3 1 5 -18 5 -19 0 -27 -2 -17 -5z"></path>
<path d="M6100 677 c0 -13 117 -29 240 -33 74 -3 160 -9 190 -14 46 -8 39 -8
-40 -4 -52 2 -160 5 -240 6 -85 0 -135 4 -120 8 15 5 -12 8 -70 7 -72 -1 -79
-2 -30 -4 123 -7 41 -18 -96 -13 -77 3 -179 2 -229 -1 -86 -5 -84 -5 45 -7
873 -13 872 -13 856 4 -12 11 -51 18 -148 25 -73 5 -143 11 -155 14 -12 3 -25
0 -28 -5 -4 -6 -10 -8 -15 -5 -4 3 -29 7 -55 10 -26 2 -60 7 -76 10 -16 4 -29
4 -29 2z"></path>
<path d="M6703 673 c15 -2 39 -2 55 0 15 2 2 4 -28 4 -30 0 -43 -2 -27 -4z"></path>
<path d="M5455 660 c48 -11 111 -12 102 -3 -4 3 -37 7 -74 9 -58 2 -62 1 -28
-6z"></path>
<path d="M5698 657 c43 -7 69 -7 85 1 17 8 4 10 -63 10 l-85 -1 63 -10z"></path>
<path d="M6018 663 c6 -2 18 -2 25 0 6 3 1 5 -13 5 -14 0 -19 -2 -12 -5z"></path>
<path d="M5848 653 c12 -2 32 -2 45 0 12 2 2 4 -23 4 -25 0 -35 -2 -22 -4z"></path>
<path d="M6775 645 c22 -7 209 -12 190 -4 -11 4 -60 8 -110 8 -49 -1 -85 -2
-80 -4z"></path>
<path d="M5258 633 c12 -2 30 -2 40 0 9 3 -1 5 -23 4 -22 0 -30 -2 -17 -4z"></path>
<path d="M5415 620 c85 -16 124 -18 128 -6 3 8 -22 11 -82 12 -64 1 -76 0 -46
-6z"></path>
<path d="M5333 603 c9 -2 25 -2 35 0 9 3 1 5 -18 5 -19 0 -27 -2 -17 -5z"></path>
<path d="M5436 588 c3 -4 -17 -9 -43 -11 -31 -3 -21 -4 27 -4 100 0 147 13 68
18 -31 2 -54 1 -52 -3z"></path>
<path d="M5278 583 c12 -2 32 -2 45 0 12 2 2 4 -23 4 -25 0 -35 -2 -22 -4z"></path>
<path d="M5408 553 c7 -3 16 -2 19 1 4 3 -2 6 -13 5 -11 0 -14 -3 -6 -6z"></path>
<path d="M5338 533 c12 -2 32 -2 45 0 12 2 2 4 -23 4 -25 0 -35 -2 -22 -4z"></path>
</g>
</svg>